<svg width="40" height="40" viewBox="0 0 40 40" fill="none" xmlns="http://www.w3.org/2000/svg">
<path d="M36.25 20.0002C36.25 20.8627 35.55 21.5627 34.6875 21.5627L9.01624 21.5627L18.3062 31.0977C18.4558 31.2433 18.5746 31.4173 18.6558 31.6095C18.7369 31.8018 18.7788 32.0083 18.7788 32.217C18.7788 32.4256 18.7371 32.6322 18.656 32.8245C18.5749 33.0167 18.4561 33.1908 18.3067 33.3364C18.1572 33.482 17.9801 33.5962 17.7858 33.6723C17.5915 33.7484 17.3839 33.7847 17.1753 33.7792C16.9667 33.7738 16.7613 33.7266 16.5713 33.6404C16.3812 33.5543 16.2104 33.431 16.0687 33.2777L4.19749 21.094C3.91 20.8025 3.74882 20.4096 3.74882 20.0002C3.74882 19.5908 3.91 19.1979 4.19749 18.9065L16.0687 6.72271C16.2104 6.56946 16.3812 6.44612 16.5713 6.35998C16.7613 6.27385 16.9667 6.22665 17.1753 6.22117C17.3839 6.2157 17.5915 6.25207 17.7858 6.32812C17.9801 6.40418 18.1572 6.51838 18.3067 6.664C18.4561 6.80961 18.5749 6.98369 18.656 7.17596C18.7371 7.36822 18.7788 7.57478 18.7788 7.78345C18.7788 7.99211 18.7369 8.19866 18.6558 8.39089C18.5746 8.58312 18.4558 8.75715 18.3062 8.90271L9.01624 18.4377L21.8519 18.4377L34.6875 18.4377C35.55 18.4377 36.25 19.1377 36.25 20.0002Z" fill="white"/>
</svg>
